# xmcd
#
# Track frame offsets: 
#        150
#        18283
#        31550
#        54120
#        69732
#        91181
#        110219
#        133051
#        152639
#        174907
#
# Disc length: 2605 seconds
#
# Revision: 0
# Processed by: cddbd v1.5.2PL0 Copyright (c) Steve Scherf et al.
# Submitted via: ExactAudioCopyFreeDBPlugin 1.0
#
DISCID=730a2b0a
DTITLE=Fool's Gold - Leave No Trace
DYEAR=1900
DGENRE=
TTITLE0=The Dive
TTITLE1=Wild Window
TTITLE2=Street Clothes
TTITLE3=Leave No Trace
TTITLE4=Balmy
TTITLE5=Narrow Sun
TTITLE6=Tel Aviv
TTITLE7=Mammal
TTITLE8=Bark and Bite
TTITLE9=Lantern
EXTD=
EXTT0=
EXTT1=
EXTT2=
EXTT3=
EXTT4=
EXTT5=
EXTT6=
EXTT7=
EXTT8=
EXTT9=
PLAYORDER=
